Coordinates
version=1
nRows=13
nColumns=36
inDegrees=yes

Units are S.I. units (second, meters, Newtons, ...)
If the header above contains a line with 'inDegrees', this indicates whether rotational values are in degrees (yes) or radians (no).

endheader
time	pelvis_tilt	pelvis_list	pelvis_rotation	pelvis_tx	pelvis_ty	pelvis_tz	hip_flexion_r	hip_adduction_r	hip_rotation_r	knee_angle_r	knee_angle_r_beta	ankle_angle_r	subtalar_angle_r	mtp_angle_r	hip_flexion_l	hip_adduction_l	hip_rotation_l	knee_angle_l	knee_angle_l_beta	ankle_angle_l	subtalar_angle_l	mtp_angle_l	lumbar_extension	lumbar_bending	lumbar_rotation	arm_flex_r	arm_add_r	arm_rot_r	elbow_flex_r	pro_sup_r	arm_flex_l	arm_add_l	arm_rot_l	elbow_flex_l	pro_sup_l
      3.84166670	     -8.88158507	     -0.98498818	      7.29126760	      0.39378414	      0.91364015	     -0.13891399	     16.33546265	     -3.66760350	      4.36319930	     14.64325390	      0.25557299	      1.47663170	    -25.71404200	     -7.49999987	     17.36207614	     -5.43376452	      6.51139181	     16.64179356	      0.29045409	      5.18772520	    -11.14718860	     -7.49999987	     -3.43713290	      1.92961254	     -2.57653953	      4.03131809	     -7.21868548	     18.59462048	    117.08613344	     78.44757385	     -4.41417719	    -10.69538466	     10.23069351	     76.16018626	     68.68276423
      3.84583330	     -8.85636272	     -1.02282559	      7.29969681	      0.39356483	      0.91479303	     -0.13915477	     16.02025648	     -3.64034429	      4.12095155	     14.11092394	      0.24628208	      1.30144933	    -25.21290858	     -7.49999987	     17.21430648	     -5.47773479	      6.35745969	     16.42393081	      0.28665167	      5.09490125	    -11.06340544	     -7.49999987	     -3.42718933	      1.88887641	     -2.46703622	      4.03747490	     -7.21585820	     17.97910481	    117.39350387	     78.38709214	     -4.51319976	    -10.63938855	     10.06586876	     76.82853947	     68.86387719
      3.85000000	     -8.83475044	     -1.01311117	      7.22854957	      0.39354821	      0.91400675	     -0.13827062	     15.78403809	     -3.66340226	      3.87784725	     13.70064698	      0.23912140	      1.11392017	    -24.85993251	     -7.49999987	     16.97341177	     -5.51862833	      6.17926120	     16.02597419	      0.27970602	      5.02991286	    -11.05379120	     -7.49999987	     -3.45456680	      1.77978893	     -2.10042370	      3.85081220	     -7.16485464	     17.05361667	    117.80251048	     80.48744715	     -4.48797901	    -10.64585934	      9.94772522	     77.66400600	     71.42740094
      3.85416670	     -8.85325619	     -1.01237832	      7.25712705	      0.39335251	      0.91506245	     -0.13847122	     15.59315105	     -3.72247072	      3.44589257	     13.28355026	      0.23184169	      0.88910961	    -24.54094093	     -7.49999987	     16.83117008	     -5.48918621	      6.16805514	     15.63786577	      0.27293225	      4.79713145	    -11.20320296	     -7.49999987	     -3.35916044	      1.67224989	     -2.12734801	      3.86514344	     -7.16217564	     16.53444616	    117.76839042	     79.72960161	     -4.66677730	    -10.66382948	      9.70817925	     78.57054729	     71.01146466
      3.85833330	     -8.84768220	     -0.98218936	      7.25011485	      0.39359077	      0.91145177	     -0.13832609	     15.48336191	     -3.78814968	      3.30057625	     13.09007691	      0.22846494	      0.84266244	    -24.31214229	     -7.49999987	     16.63392461	     -5.43998900	      6.02947303	     15.29605813	      0.26696658	      4.75928044	    -11.27727988	     -7.49999987	     -3.32481297	      1.64052841	     -2.02607844	      4.22742753	     -7.30304590	     16.00506405	    117.91889293	     79.11757449	     -4.84603662	    -10.71745161	      9.59245196	     79.56343701	     70.75421557
      3.86250000	     -8.90135682	     -1.00908217	      7.31134897	      0.39337592	      0.91273685	     -0.13829631	     15.48016355	     -3.78439493	      3.18419087	     12.99118770	      0.22673900	      0.86847465	    -24.23383931	     -7.49999987	     16.55610370	     -5.46823784	      5.97345594	     15.00844531	      0.26194679	      4.61997441	    -11.38212485	     -7.49999987	     -3.20600286	      1.59426712	     -1.99991807	      4.50404334	     -7.49669967	     15.50000439	    118.16287293	     78.29954800	     -4.89548918	    -10.78286180	      9.40809107	     80.35404964	     70.43619113
      3.86666670	     -8.88234085	     -0.97370712	      7.38083880	      0.39354117	      0.91817760	     -0.13773108	     15.18378526	     -3.86986558	      2.93942727	     12.54088521	      0.21887974	      0.98032637	    -23.63951483	     -7.49999987	     16.24145492	     -5.45271208	      5.91234517	     14.43637652	      0.25196230	      4.27481540	    -11.37578692	     -7.49999987	     -3.21059696	      1.57136926	     -1.99210968	      4.94515334	     -7.76153299	     15.26779163	    118.27000336	     78.70655806	     -4.76429466	    -10.96826123	      9.33918860	     80.49092340	     70.76842144
      3.87083330	     -8.81948277	     -0.95239106	      7.39729820	      0.39352260	      0.92201507	     -0.13767371	     14.82772332	     -3.89977959	      2.64033787	     11.96207793	      0.20877765	      0.90176134	    -23.02769699	     -7.49999987	     15.83307068	     -5.48675606	      5.81779234	     13.75419154	      0.24005593	      3.83534649	    -11.33126542	     -7.49999987	     -3.28090664	      1.56346878	     -1.93963921	      5.29903218	     -7.86252406	     15.28167627	    118.53395485	     78.34480901	     -4.74492972	    -10.90054557	      9.36923304	     81.07721513	     70.59533666
      3.87500000	     -8.94335003	     -1.00849648	      7.49274554	      0.38992407	      0.92061366	     -0.13300222	     14.74394945	     -3.80601879	      2.33489074	     11.32152202	      0.19759784	      0.60302351	    -22.65854160	     -7.49999987	     15.59778738	     -5.58610848	      5.92350278	     12.82518039	      0.22384162	      3.33417214	    -11.34155755	     -7.49999987	     -3.18126492	      1.51644121	     -1.89612107	      5.42213217	     -7.64398607	     15.13803064	    118.39396585	     78.46446088	     -4.42029233	    -11.11538666	      9.28834003	     81.57245613	     70.69815347
      3.87916670	     -8.49669577	     -1.09735516	      7.75935906	      0.39761426	      0.91602663	     -0.13341892	     13.72798026	     -3.67494399	      1.71171257	     10.51742805	      0.18356375	      0.79701429	    -21.66398610	     -7.49999987	     14.71538446	     -5.75856191	      6.31730331	     11.91786139	      0.20800592	      2.80845484	    -12.00909063	     -7.49999987	     -3.70190180	      1.53749226	     -1.96702303	      5.61220219	     -7.46060567	     14.73827429	    118.69186065	     79.07718617	     -4.56950402	    -11.08075143	      8.90533463	     82.74954682	     71.22696089
      3.88333330	     -8.43977411	     -1.20424479	      7.67770483	      0.39380399	      0.91825837	     -0.12826789	     13.27629670	     -3.41710578	      1.45852339	      9.75233483	      0.17021035	      0.76608452	    -21.20966760	     -7.49999987	     14.34380382	     -6.10384792	      6.20265152	     11.19110739	      0.19532167	      2.56550796	    -11.96986959	     -7.49999987	     -3.66776813	      1.37009759	     -1.89897787	      5.55723137	     -7.10759793	     14.42594541	    118.89619535	     79.22071195	     -4.50897930	    -11.28197753	      8.59743441	     83.43873375	     71.32246225
      3.88750000	     -8.19559801	     -1.32351519	      7.63031326	      0.39361501	      0.91962241	     -0.12834988	     12.59389222	     -3.17412413	      1.10116038	      8.92802440	      0.15582342	      0.73765496	    -20.51387289	     -7.49999987	     13.66789500	     -6.41248119	      6.23732579	     10.37734999	      0.18111892	      2.16646691	    -12.06006404	     -7.49999987	     -3.97444238	      1.26758085	     -1.92455530	      5.69392357	     -6.67898365	     14.07910501	    118.99676063	     79.25210900	     -4.42728730	    -11.42864979	      8.08688569	     84.23534996	     71.33773093
      3.89166670	     -8.12440795	     -1.42530823	      7.53372022	      0.39386753	      0.91874437	     -0.12801998	     12.11121218	     -2.97120813	      0.86377319	      8.12091936	      0.14173678	      0.58837475	    -20.02454717	     -7.49999987	     13.23711346	     -6.67352600	      6.22446294	      9.74930423	      0.17015746	      1.86598944	    -12.16569720	     -7.49999987	     -4.02195670	      1.14324714	     -1.98860540	      5.85988435	     -6.30790116	     13.62901001	    119.04513454	     78.93877822	     -4.10482106	    -11.72615440	      7.74484877	     84.75328826	     71.13223567
